<svg width="20" height="20" viewBox="0 0 20 20" fill="none" xmlns="http://www.w3.org/2000/svg">
<path d="M19.9993 8.11944C19.9992 7.92484 19.9925 7.73121 19.9798 7.53883C19.094 7.53883 4.03441 7.53883 3.55767 7.53883L2.80257 5.08477C2.51117 4.1378 1.59964 3.47646 0.58592 3.47646C0.262336 3.47646 0 3.73879 0 4.06238C0 4.38596 0.262336 4.6483 0.58592 4.6483C1.08208 4.6483 1.54327 4.9768 1.68253 5.42937C2.65273 8.58248 2.55852 8.27772 2.57078 8.31373C2.58965 8.36885 2.68801 8.64349 3.67282 11.401C4.03265 12.4086 5.16469 13.0855 6.48973 13.0855H8.50924L7.96222 14.4529C6.2579 14.1655 4.72642 15.4862 4.72642 17.187C4.72642 18.7254 5.97217 19.9994 7.49978 19.9994C8.84243 19.9994 9.94716 19.0213 10.2114 17.7729H12.288C12.3979 18.2923 12.6528 18.7724 13.0335 19.1625C14.1231 20.279 15.8758 20.2793 16.9657 19.1625C17.4862 18.6291 17.7729 17.9275 17.7729 17.187C17.7729 15.4859 16.2412 14.1656 14.5371 14.4529L13.9901 13.0855H16.0096C17.3332 13.0855 18.4642 12.41 18.8253 11.4043C20.0354 8.13222 19.9993 8.27112 19.9993 8.11944ZM12.289 16.6011H10.2103C10.0571 15.8918 9.63233 15.2825 9.05012 14.8885L9.77139 13.0855H12.7279L13.4492 14.8885C12.867 15.2825 12.4422 15.8918 12.289 16.6011Z" fill="white"/>
<path d="M19.822 6.367C19.0992 2.83804 16.1583 0 12.4996 0H11.5622C11.3096 0 11.0855 0.161792 11.0061 0.401511L9.02783 6.367H19.822Z" fill="white"/>
</svg>
