<svg width="19" height="20" viewBox="0 0 19 20" fill="none" xmlns="http://www.w3.org/2000/svg">
<path d="M18.666 3.19168C18.1147 2.23902 17.3224 1.44004 16.3748 0.881133C15.3976 0.304687 14.2783 0 13.138 0C11.9978 0 10.8784 0.304687 9.9012 0.881133C8.95362 1.44008 8.16132 2.23906 7.61003 3.19168C7.49749 3.38617 7.50605 3.62781 7.63206 3.81383L10.152 7.53348C10.1666 7.53242 10.1812 7.53125 10.1961 7.53125H12.0112L11.6407 6.41965C11.5384 6.11266 11.7043 5.78082 12.0113 5.67848C12.3183 5.57621 12.6501 5.74211 12.7525 6.04906L13.138 7.20574L13.5236 6.04906C13.6259 5.74207 13.9577 5.57613 14.2648 5.67848C14.5717 5.78082 14.7376 6.11262 14.6353 6.41965L14.2648 7.53125H16.08C16.0949 7.53125 16.1094 7.53238 16.1241 7.53348L18.644 3.81383C18.77 3.62781 18.7785 3.38617 18.666 3.19168Z" fill="white"/>
<path d="M10.6693 18.7865C10.6693 19.4556 11.2136 20 11.8828 20H14.3932C15.0624 20 15.6068 19.4556 15.6068 18.7865V8.70312H10.6693V18.7865Z" fill="white"/>
<path d="M0.627625 7.44794H6.19274V13.1797H0.627625V7.44794Z" fill="white"/>
<path d="M0 18.7865C0 19.4556 0.544375 20 1.21352 20H5.6068C6.27594 20 6.82031 19.4556 6.82031 18.7865V14.3516H0V18.7865Z" fill="white"/>
<path d="M5.56511 1.21351C5.56511 0.630775 5.14929 0.19136 4.59792 0.19136C4.45851 0.19136 4.31749 0.219485 4.17886 0.274993L2.20624 1.06402C1.66406 1.28089 1.25519 1.8848 1.25519 2.46874V6.27605H5.56511V1.21351Z" fill="white"/>
</svg>
