<svg width="17" height="20" viewBox="0 0 17 20" fill="none" xmlns="http://www.w3.org/2000/svg">
<path d="M2.54674 15.966H16.1701C16.2118 15.966 16.2522 15.96 16.2911 15.9508C16.2942 15.9508 16.2967 15.9513 16.2998 15.9513C16.5906 15.9513 16.8269 15.7153 16.8269 15.4242V0.527083C16.8269 0.236132 16.5906 0 16.2998 0H16.1711H3.38973H2.54748C1.14454 0 0.00337402 1.14143 0.00337402 2.54398C0.00337402 2.56279 0.0070751 2.58064 0.00890389 2.5988C0.0070751 3.89441 -0.00899212 15.7994 0.00707511 17.3645C0.00607363 17.3951 0.00232891 17.425 0.00232891 17.4559C0.00232891 18.8045 1.05832 19.9086 2.38659 19.992C2.41324 19.9961 2.43937 20 2.46702 20H16.2998C16.5906 20 16.8269 19.764 16.8269 19.4729V17.4889C16.8269 17.198 16.5905 16.9618 16.2998 16.9618C16.009 16.9618 15.7727 17.1981 15.7727 17.4889V18.9459H2.54674C1.74578 18.9459 1.09194 18.3099 1.05981 17.5169C1.06059 17.5028 1.06316 17.4894 1.0629 17.475C1.06237 17.4518 1.06159 17.4158 1.06107 17.3679C1.10714 16.5875 1.75492 15.966 2.54674 15.966ZM2.90614 2.54398C2.90614 2.25303 3.14227 2.01689 3.43323 2.01689C3.72418 2.01689 3.96031 2.25303 3.96031 2.54398V13.2505C3.96031 13.5413 3.72418 13.7775 3.43323 13.7775C3.14227 13.7775 2.90614 13.5412 2.90614 13.2505V2.54398Z" fill="white"/>
</svg>
