<svg width="40" height="37" viewBox="0 0 40 37" fill="none" xmlns="http://www.w3.org/2000/svg">
<path fill-rule="evenodd" clip-rule="evenodd" d="M31.68 0H8.32C3.72 0 0 3.77323 0 8.43906V20.2456C0 24.952 3.72 28.7252 8.36 28.7252C9.52 28.7252 10.44 29.6584 10.44 30.835V34.6894C10.44 36.1906 12.24 36.9209 13.28 35.866L19.36 29.7396C20 29.0904 20.84 28.7658 21.72 28.7658H31.68C36.28 28.7658 40 24.9926 40 20.3268V8.43906C40 3.77323 36.28 0 31.68 0ZM11.68 16.8781C10.32 16.8781 9.16 15.7421 9.16 14.3626C9.16 12.9832 10.28 11.8471 11.68 11.8471C13.04 11.8471 14.16 12.9832 14.16 14.3626C14.16 15.7421 13.04 16.8781 11.68 16.8781ZM20 16.8781C18.64 16.8781 17.48 15.7421 17.48 14.3626C17.48 12.9832 18.6 11.8471 20 11.8471C21.36 11.8471 22.48 12.9832 22.48 14.3626C22.48 15.7421 21.36 16.8781 20 16.8781ZM28.32 16.8781C26.96 16.8781 25.8 15.7421 25.8 14.3626C25.8 12.9832 26.92 11.8471 28.32 11.8471C29.68 11.8471 30.8 12.9832 30.8 14.3626C30.8 15.7421 29.72 16.8781 28.32 16.8781Z" fill="white"/>
</svg>
