<svg width="20" height="20" viewBox="0 0 20 20" fill="none" xmlns="http://www.w3.org/2000/svg">
<path d="M19.4738 17.0049L11.6314 9.16249L2.4689 0H1.75285L1.60664 0.371523C1.22074 1.35215 1.05586 2.35511 1.12988 3.27187C1.21425 4.31687 1.61125 5.22159 2.278 5.88835L9.43073 13.0411L10.3742 12.0976L16.9868 19.4919C17.6447 20.1497 18.7769 20.1888 19.4738 19.4919C20.1595 18.8062 20.1595 17.6906 19.4738 17.0049Z" fill="white"/>
<path d="M6.1162 11.3844L0.514218 16.9864C-0.171406 17.672 -0.171406 18.7877 0.514218 19.4733C1.16555 20.1247 2.2923 20.1822 3.00113 19.4733L8.60315 13.8713L6.1162 11.3844Z" fill="white"/>
<path d="M19.1445 3.33005L15.9668 6.50778L15.1377 5.67879L18.3155 2.50102L17.4865 1.67204L14.3088 4.84977L13.4798 4.02079L16.6576 0.843059L15.8286 0.0141144L11.6837 4.15903C11.1767 4.6661 10.8739 5.33938 10.8311 6.05493C10.8203 6.23622 10.7792 6.41454 10.711 6.58414L13.4035 9.27668C13.5731 9.20844 13.7515 9.16738 13.9328 9.15656C14.6483 9.11387 15.3216 8.81102 15.8286 8.30395L19.9736 4.15907L19.1445 3.33005Z" fill="white"/>
</svg>
