<svg width="24" height="20" viewBox="0 0 24 20" fill="none" xmlns="http://www.w3.org/2000/svg">
<path d="M5.05344 7.37427C5.3204 7.82119 5.53508 8.30518 5.69218 8.81427C6.12353 10.1691 6.25326 11.782 6.28582 12.9033H17.7127C17.7458 11.7826 17.8755 10.1684 18.3068 8.81361C18.4634 8.30518 18.6778 7.82179 18.9444 7.37554C19.2934 6.81074 19.7273 6.31943 20.2265 5.92392C20.4068 5.77574 20.5943 5.63916 20.7882 5.51487C19.4758 2.21873 16.0283 0 11.9992 0C8.18148 0 4.81401 2.28841 3.44965 5.67745C3.56047 5.75808 3.66733 5.8407 3.77129 5.92392C4.26981 6.31991 4.70362 6.81068 5.05344 7.37427Z" fill="white"/>
<path d="M23.5724 6.90714C23.2833 6.58005 22.9262 6.49035 22.7125 6.43682C22.4184 6.36297 22.1136 6.36297 21.8195 6.43682C21.4458 6.53166 21.2099 6.7194 20.8825 6.98003C20.4939 7.28777 20.1559 7.66985 19.8838 8.10908C19.6749 8.46436 19.5062 8.84777 19.3816 9.25035C18.9126 10.7097 18.844 12.5704 18.8434 13.5484C18.8434 13.9047 18.5876 14.1936 18.2721 14.1936H5.72538C5.40984 14.1936 5.15402 13.9047 5.15402 13.5484C5.15402 12.5697 5.08203 10.7097 4.61753 9.25035C4.49251 8.84741 4.32363 8.46364 4.11473 8.10775C3.84209 7.66864 3.50373 7.28656 3.11486 6.9787C2.78748 6.72061 2.55095 6.52706 2.1767 6.43482C1.88307 6.36031 1.57845 6.36031 1.28482 6.43482C1.07056 6.48835 0.713457 6.57872 0.423787 6.90581C0.419234 6.91162 -0.0904212 7.50841 0.0141344 8.28709C0.128385 9.12001 0.83285 9.58259 1.28021 9.68965C1.44283 9.7283 1.61118 9.72406 1.77214 9.67737C1.96641 9.63546 2.23321 9.57739 2.536 9.73223C3.48959 10.2187 3.59356 12.0638 2.89022 16.0877C3.24957 17.28 3.70208 17.3722 4.04488 17.4174H5.15327V19.3529C5.15327 19.7092 5.40909 19.9981 5.72463 19.9981H6.29599C6.61153 19.9981 6.86735 19.7092 6.86735 19.3529V17.4193H17.1321V19.3548C17.1321 19.7111 17.3879 20 17.7034 20H18.2748C18.5903 20 18.8461 19.7111 18.8461 19.3548V17.4193H19.9545C20.2973 17.3748 20.7498 17.2819 21.1092 16.0896C20.4059 12.0664 20.5099 10.2186 21.4634 9.73417C21.7662 9.57933 22.0348 9.63673 22.2279 9.67931C22.3891 9.72497 22.5575 9.72896 22.7204 9.69092C23.1677 9.5838 23.8733 9.12122 23.9865 8.28896C24.0888 7.51035 23.5775 6.91361 23.5724 6.90714Z" fill="white"/>
</svg>
