<svg width="20" height="20" viewBox="0 0 20 20" fill="none" xmlns="http://www.w3.org/2000/svg">
<path d="M19.8184 1.9504L18.0508 0.182821C17.8071 -0.0609404 17.4108 -0.0609404 17.1671 0.182821L15.3995 1.9504C15.1557 2.19417 15.1557 2.59043 15.3995 2.8342L11.6768 6.55562C11.6468 6.52562 11.613 6.49812 11.578 6.47437C9.71796 5.27431 7.66786 5.27306 6.47405 6.46562C5.88028 7.04939 5.57276 7.86693 5.58026 8.79198C3.89893 8.44696 2.32386 8.84198 1.24756 9.91828C0.442521 10.7171 0 11.8434 0 13.0884C0 14.7773 0.777537 16.5198 2.1326 17.8661C3.48141 19.2225 5.22275 20 6.91032 20H6.91157C8.15663 20 9.28169 19.5575 10.0792 18.7549C11.1568 17.6774 11.5543 16.1048 11.2068 14.421C12.0968 14.4472 12.9494 14.1222 13.5281 13.5284C14.7244 12.3321 14.7232 10.2808 13.5244 8.42321C13.5019 8.38696 13.4744 8.3532 13.4431 8.3232L17.1646 4.60178C17.4083 4.84554 17.8046 4.84554 18.0483 4.60178L19.8159 2.8342C20.0622 2.59043 20.0622 2.19417 19.8184 1.9504ZM5.44276 16.6923C5.32025 16.8136 5.16024 16.8749 5.00024 16.8749C4.84023 16.8749 4.68022 16.8136 4.55771 16.6923L3.30766 15.4423C3.06389 15.1985 3.06389 14.8023 3.30766 14.5585C3.55142 14.3147 3.94769 14.3147 4.19145 14.5585L5.44151 15.8086C5.68652 16.0523 5.68652 16.4473 5.44276 16.6923ZM7.50035 14.3747C6.46655 14.3747 5.62526 13.5334 5.62526 12.4996C5.62526 11.4658 6.46655 10.6246 7.50035 10.6246C8.53415 10.6246 9.37544 11.4658 9.37544 12.4996C9.37544 13.5334 8.53415 14.3747 7.50035 14.3747Z" fill="white"/>
</svg>
