<svg width="20" height="20" viewBox="0 0 20 20" fill="none" xmlns="http://www.w3.org/2000/svg">
<path d="M13.3743 10.6978C12.4744 9.09136 10.9416 8.13217 9.27413 8.13217C7.60666 8.13217 6.07392 9.09136 5.17411 10.6978L3.00554 14.5686C2.64573 15.2107 2.47972 15.9527 2.52534 16.7137C2.57097 17.4749 2.82411 18.1838 3.25731 18.7641C3.69081 19.3439 4.26362 19.7402 4.91379 19.9103C5.56397 20.0803 6.23047 20.0077 6.84113 19.7006L6.88202 19.6798C8.41858 18.9224 10.1744 18.9294 11.707 19.7006C12.1023 19.8994 12.5212 20 12.9439 20C13.1737 20 13.4048 19.9702 13.6339 19.9104C14.284 19.7406 14.8569 19.3443 15.2905 18.7643C15.7239 18.1845 15.9771 17.4755 16.0229 16.7141C16.0687 15.9527 15.9027 15.2109 15.5429 14.5684L13.3743 10.6978Z" fill="white"/>
<path d="M3.58964 10.6927C4.23478 10.4092 4.72489 9.81433 4.96964 9.01768C5.20264 8.25961 5.18356 7.40378 4.91577 6.60766C4.64783 5.81206 4.16047 5.16259 3.5434 4.77867C2.89521 4.37554 2.18309 4.3099 1.53901 4.59395C0.243241 5.16398 -0.351393 6.99612 0.213639 8.67898C0.664993 10.0184 1.71769 10.864 2.78199 10.864C3.05375 10.864 3.32627 10.8088 3.58964 10.6927Z" fill="white"/>
<path d="M7.79739 7.66008C9.41725 7.66008 10.7352 5.94212 10.7352 3.83047C10.7352 1.7183 9.41725 0 7.79739 0C6.17767 0 4.85992 1.7183 4.85992 3.83047C4.85992 5.94212 6.17767 7.66008 7.79739 7.66008Z" fill="white"/>
<path d="M12.8709 8.60093H12.8711C13.1202 8.69556 13.3744 8.74078 13.6276 8.74078C14.8089 8.74078 15.9602 7.75697 16.3995 6.24503C16.6525 5.37471 16.6358 4.45445 16.3526 3.65396C16.0563 2.81594 15.5072 2.20767 14.8062 1.94107C14.105 1.67448 13.3468 1.78569 12.671 2.25394C12.0254 2.70123 11.5307 3.427 11.278 4.29732C10.7448 6.1333 11.4593 8.0639 12.8709 8.60093Z" fill="white"/>
<path d="M19.0575 8.15398L19.0571 8.15345C17.94 7.20928 16.2693 7.61851 15.3326 9.0662C14.3968 10.5146 14.5431 12.4618 15.6585 13.4067C16.0653 13.7515 16.546 13.9163 17.0379 13.9163C17.8953 13.9163 18.7873 13.4156 19.3836 12.4948C20.3193 11.0464 20.1731 9.0992 19.0575 8.15398Z" fill="white"/>
</svg>
