<svg width="43" height="44" viewBox="0 0 43 44" fill="none" xmlns="http://www.w3.org/2000/svg">
<g clip-path="url(#clip0)">
<path d="M21.5309 0C16.8879 0 13.1241 3.85124 13.1241 8.60225C13.1241 13.3533 16.8879 17.2045 21.5309 17.2045C26.173 17.2045 29.9376 13.3533 29.9376 8.60225C29.9376 3.85124 26.173 0 21.5309 0Z" fill="white"/>
<path d="M12.7666 23.2854C7.46554 27.63 8.48595 33.4796 8.48595 40.6362C8.48595 42.5297 9.99143 44.0989 11.8699 44.0989C32.2664 44.0989 33.0781 44.7722 34.2879 42.0314C34.6841 41.1049 34.5758 41.3995 34.5758 32.5323C34.5758 25.4894 28.6157 20.6059 23.8316 20.6059C19.606 20.245 15.9341 20.6098 12.7666 23.2854Z" fill="white"/>
</g>
<defs>
<clipPath id="clip0">
<rect width="43" height="44" fill="white"/>
</clipPath>
</defs>
</svg>
