<svg width="21" height="20" viewBox="0 0 21 20" fill="none" xmlns="http://www.w3.org/2000/svg">
<path d="M4.62091 20H10.1005H15.58V19.2694H4.62091V20Z" fill="white"/>
<path d="M16.0545 1.54894C15.8719 1.40838 15.6643 1.30377 15.4426 1.24073L13.2879 0.624978C13.2282 0.607877 13.1738 0.575833 13.1299 0.531882L12.598 0C11.8285 0.40962 10.9721 0.628733 10.1004 0.638922C9.22883 0.628733 8.37235 0.40962 7.60289 0L7.07097 0.531882C7.02706 0.575873 6.97268 0.607917 6.91295 0.625017L4.75825 1.24073C4.53662 1.30377 4.32901 1.40838 4.14642 1.54894L0 4.73859L2.51182 8.50688L3.21007 7.94819L1.39451 5.22521C1.285 5.05744 1.33106 4.83273 1.4978 4.72157C1.66453 4.61042 1.88964 4.65433 2.00239 4.81994L3.78267 7.49002L4.02727 7.29432C4.13695 7.20658 4.28722 7.18952 4.41384 7.25037C4.54046 7.31122 4.62093 7.43928 4.62093 7.57972V18.5388H15.58V7.57968C15.58 7.4392 15.6605 7.31118 15.7871 7.25033C15.9137 7.18948 16.064 7.20658 16.1737 7.29428L16.4183 7.48998L18.1985 4.8199C18.3109 4.65313 18.5368 4.6085 18.7042 4.72005C18.8715 4.83161 18.9172 5.05736 18.8065 5.22517L16.9909 7.94815L17.6892 8.50684L20.201 4.73855L16.0545 1.54894Z" fill="white"/>
</svg>
