<svg width="20" height="20" viewBox="0 0 20 20" fill="none" xmlns="http://www.w3.org/2000/svg">
<path d="M19.6446 6.14373L17.9908 4.4899L19.2341 3.24712C19.344 3.13732 19.4058 2.98853 19.4058 2.8329C19.4058 2.67728 19.344 2.52849 19.2341 2.41865L17.5696 0.754112C17.3498 0.534385 16.9607 0.534385 16.741 0.754112L15.4982 1.99736L13.8442 0.343213C13.3865 -0.114404 12.6446 -0.114404 12.1869 0.343213C11.7292 0.800831 11.7292 1.54282 12.1869 2.00048L17.9873 7.80099C18.445 8.25861 19.187 8.25861 19.6446 7.80099C20.1023 7.34338 20.1023 6.60138 19.6446 6.14373Z" fill="white"/>
<path d="M7.80096 17.9995L2.00052 12.199C1.54282 11.7413 0.800909 11.7413 0.343213 12.199C-0.114404 12.6567 -0.114404 13.3987 0.343213 13.8563L1.99732 15.5104L0.756495 16.7507C0.646612 16.8606 0.584815 17.0093 0.584815 17.1649C0.584815 17.3206 0.646612 17.4694 0.756495 17.5792L2.42103 19.2432C2.53544 19.3577 2.68536 19.4149 2.83529 19.4149C2.98521 19.4149 3.13513 19.3577 3.24954 19.2432L4.48986 18.0029L6.14369 19.6568C6.60131 20.1144 7.3433 20.1144 7.80096 19.6568C8.25865 19.1991 8.25865 18.4571 7.80096 17.9995Z" fill="white"/>
<path d="M10.5296 6.97234L6.97232 10.5417L9.45826 13.0277L13.0155 9.4582L10.5296 6.97234Z" fill="white"/>
<path d="M17.9874 9.45826L10.5296 2.00048C10.072 1.54286 9.32994 1.54286 8.87232 2.00048C8.41463 2.45817 8.41463 3.20009 8.87232 3.65778L16.3301 11.1156C16.7877 11.5732 17.5297 11.5732 17.9874 11.1156C18.4451 10.6579 18.4451 9.91595 17.9874 9.45826Z" fill="white"/>
<path d="M11.1156 16.3422L3.65779 8.88441C3.20017 8.42679 2.45818 8.42679 2.00056 8.88441C1.54286 9.34211 1.54286 10.0841 2.00056 10.5417L9.45834 17.9995C9.91596 18.4571 10.658 18.4571 11.1156 17.9995C11.5733 17.5419 11.5733 16.7999 11.1156 16.3422Z" fill="white"/>
</svg>
