<svg width="20" height="20" viewBox="0 0 20 20" fill="none" xmlns="http://www.w3.org/2000/svg">
<path d="M11.04 9.58714C11.2704 9.46931 11.5271 9.40702 11.7934 9.40702C12.2347 9.40702 12.6496 9.57834 12.9624 9.88947L13.6357 9.21625C15.3019 9.80029 17.229 9.42639 18.5609 8.09448C19.6817 6.97374 20.1237 5.43174 19.8877 3.97824C19.8617 3.81818 19.7484 3.68615 19.5941 3.63635C19.4399 3.58647 19.2705 3.627 19.1559 3.74169L18.1562 4.74139C17.3421 5.55551 16.022 5.55551 15.2079 4.74139C14.3937 3.92728 14.3937 2.60723 15.2079 1.79312L16.2076 0.793413C16.3223 0.678719 16.3632 0.509373 16.3132 0.355037C16.2634 0.200633 16.1311 0.0875761 15.971 0.0615805C14.5176 -0.174358 12.9755 0.267635 11.8548 1.38838C10.5031 2.74015 10.1393 4.70462 10.761 6.38751L9.30072 7.84776L11.04 9.58714Z" fill="white"/>
<path d="M8.37906 12.2332L6.64705 10.5012L0.590631 16.5576C-0.196877 17.3451 -0.196877 18.6219 0.590631 19.4094C1.37814 20.1969 2.65492 20.1969 3.44243 19.4094L8.66345 14.1884C8.13685 13.659 8.04194 12.8598 8.37906 12.2332Z" fill="white"/>
<path d="M12.242 10.6163C12.1181 10.4924 11.9557 10.4305 11.7934 10.4305C11.6311 10.4305 11.4687 10.4924 11.3449 10.6163L10.9833 10.9778L4.54297 4.53746L4.844 4.23643C5.11828 3.96221 5.08424 3.50732 4.77161 3.27712L2.14394 1.34191C1.89142 1.15599 1.541 1.18239 1.31925 1.40414L0.203555 2.5199C-0.0181917 2.74165 -0.0445966 3.09215 0.14133 3.3446L2.07646 5.97226C2.30667 6.28482 2.76129 6.31921 3.03577 6.04465L3.3368 5.74356L9.77715 12.1839L9.39015 12.5709C9.14241 12.8186 9.14241 13.2202 9.39015 13.468L15.3315 19.4094C16.119 20.1969 17.3958 20.1969 18.1833 19.4094C18.9708 18.6219 18.9708 17.3451 18.1833 16.5576L12.242 10.6163Z" fill="white"/>
</svg>
