<svg width="15" height="20" viewBox="0 0 15 20" fill="none" xmlns="http://www.w3.org/2000/svg">
<path d="M14.052 16.9813C13.8847 16.3709 13.4821 15.8511 12.9318 15.5382L11.6813 14.8249C11.9096 14.2258 12.0355 13.5723 12.0355 12.8882C12.0355 12.4115 11.9736 11.9505 11.8604 11.5113L12.4216 11.3584C12.8704 11.2359 13.2525 10.9409 13.4838 10.5375C13.713 10.134 13.7753 9.65513 13.6538 9.20547C13.3984 8.27084 12.4346 7.72009 11.5009 7.97455L9.98327 8.38762C11.0521 7.6177 11.7362 6.43385 11.7362 5.10621C11.7362 5.08224 11.7357 5.05871 11.7353 5.03475C12.7863 4.71057 13.5523 3.7302 13.5523 2.57467C13.5523 1.15509 12.398 0.00043572 10.9785 0.00043572C10.0621 0.00043572 9.25736 0.481471 8.80116 1.2039C8.26479 1.01087 7.68005 0.904555 7.0683 0.904555C6.45611 0.904555 5.87138 1.01087 5.33544 1.20346C4.87924 0.481035 4.07359 0 3.15814 0C1.73857 0 0.583908 1.15466 0.583908 2.57424C0.583908 3.7302 1.3499 4.71014 2.40086 5.03431C2.40043 5.05828 2.39999 5.08181 2.39999 5.10577C2.39999 6.43341 3.08451 7.61726 4.15333 8.38718L2.63615 7.97412C1.70153 7.71966 0.738589 8.27084 0.483693 9.20503C0.362127 9.65382 0.422692 10.1327 0.653188 10.5366C0.88412 10.9401 1.26625 11.2355 1.71504 11.3579L2.27625 11.5109C2.16165 11.9496 2.10065 12.4106 2.10065 12.8882C2.10065 13.5723 2.22701 14.2258 2.45533 14.8249L1.20481 15.5382C0.654495 15.8519 0.251889 16.3713 0.0850084 16.9813C-0.0827439 17.5922 4.30339e-05 18.2445 0.313326 18.7939C0.966035 19.9403 2.42396 20.3394 3.56946 19.6858L6.42866 18.0571C6.63824 18.085 6.85218 18.1003 7.06917 18.1003C7.28616 18.1003 7.49966 18.0854 7.70924 18.0571L10.5684 19.6858C11.7148 20.3394 13.1723 19.9403 13.8241 18.7939C14.1374 18.2445 14.2193 17.5922 14.052 16.9813ZM5.13719 4.42605C5.40908 4.42605 5.63042 4.64696 5.63042 4.91885C5.63042 5.19074 5.40908 5.41208 5.13719 5.41208C4.86486 5.41208 4.64395 5.19117 4.64395 4.91885C4.64395 4.64652 4.86486 4.42605 5.13719 4.42605ZM8.99941 4.46221C9.27174 4.46221 9.49265 4.68312 9.49265 4.95545C9.49265 5.22777 9.27174 5.44825 8.99941 5.44825C8.72709 5.44825 8.50618 5.22777 8.50618 4.95545C8.50618 4.68312 8.72709 4.46221 8.99941 4.46221ZM6.86307 16.1169C6.30143 15.5583 4.77728 14.0407 4.74591 14.0097C4.10322 13.3666 4.10322 12.3252 4.74591 11.6825C5.38773 11.0416 6.42518 11.0398 7.0683 11.6782C7.71142 11.0398 8.74887 11.0416 9.39069 11.6825C10.0338 12.3252 10.0338 13.3666 9.39069 14.0097C9.35888 14.0407 7.83473 15.5583 7.27352 16.1169C7.1598 16.2297 6.97636 16.2297 6.86307 16.1169ZM10.978 1.29975C11.68 1.29975 12.2525 1.87185 12.2525 2.57424C12.2525 3.09666 11.9353 3.54633 11.4852 3.74284C11.1911 2.97248 10.6565 2.30322 9.96105 1.80868C10.1933 1.49975 10.5628 1.29975 10.978 1.29975ZM7.0683 5.46132C7.92623 5.46132 8.62121 6.08745 8.62121 6.85911C8.62121 7.63077 7.92536 8.2569 7.0683 8.2569C6.2108 8.2569 5.51539 7.63121 5.51539 6.85911C5.51539 6.08745 6.20993 5.46132 7.0683 5.46132ZM1.8841 2.57424C1.8841 1.87185 2.4562 1.29975 3.15858 1.29975C3.57382 1.29975 3.94331 1.49975 4.17555 1.80824C3.48014 2.30322 2.94508 2.97248 2.6514 3.74197C2.20043 3.54633 1.8841 3.09666 1.8841 2.57424Z" fill="white"/>
<path d="M7.06829 6.9419C7.45187 6.9419 7.76283 6.66197 7.76283 6.31665C7.76283 5.97132 7.45187 5.69139 7.06829 5.69139C6.6847 5.69139 6.37375 5.97132 6.37375 6.31665C6.37375 6.66197 6.6847 6.9419 7.06829 6.9419Z" fill="white"/>
</svg>
